<svg xmlns="http://www.w3.org/2000/svg" viewBox="0 0 700.53 345.67"><defs><style>.cls-1{fill:#e93d32;}.cls-2{fill:#c6002b;}.cls-3{fill:#e3292d;}.cls-4{fill:#cd6b44;}.cls-5{fill:#bc002d;}.cls-6{fill:#d10d29;}.cls-7{fill:#feee89;}.cls-8{fill:#b3012f;}.cls-9{fill:#e66144;}.cls-10{fill:#c81f29;}.cls-11{fill:#e54638;}.cls-12{fill:#ed7e6c;}.cls-13{fill:#e46d53;}.cls-14{fill:#ca7b60;}.cls-15{fill:#c85e3e;}.cls-16{fill:#d17f7c;}.cls-17{fill:#fde99a;}.cls-18{fill:#fe9c66;}.cls-19{fill:#fec672;}.cls-20{fill:#fcce86;}.cls-21{fill:#fef5a6;}.cls-22{fill:#cf7950;}.cls-23{fill:#e35640;}.cls-24{fill:#e4735e;}.cls-25{fill:#ca3e31;}.cls-26{fill:#df8280;}.cls-27{fill:#f69b74;}.cls-28{fill:#fefbb0;}.cls-29{fill:#da1a2a;}.cls-30{fill:#fbb67a;}.cls-31{fill:#e27e6f;}.cls-32{fill:#ee927a;}.cls-33{fill:#f8a57a;}.cls-34{fill:#fedd84;}.cls-35{fill:#fddf92;}.cls-36{fill:#fcbd87;}.cls-37{fill:#fdb873;}.cls-38{fill:#fec47c;}.cls-39{fill:#f99472;}.cls-40{fill:#fddaa2;}.cls-41{fill:#fdf0b7;}.cls-42{fill:#c47e73;}.cls-43{fill:#d7808c;}.cls-44{fill:#f9552b;}.cls-45{fill:#ea2727;}.cls-46{fill:#ef4b36;}.cls-47{fill:#cf0d28;}.cls-48{fill:#c4092c;}.cls-49{fill:#de673f;}.cls-50{fill:#e2804f;}.cls-51{fill:#d85c3d;}.cls-52{fill:#db1029;}.cls-53{fill:#fde57a;}.cls-54{fill:#f1573b;}.cls-55{fill:#f3704a;}.cls-56{fill:#ed6f54;}.cls-57{fill:#f06743;}.cls-58{fill:#d1282b;}.cls-59{fill:#f37a5b;}.cls-60{fill:#d57b5d;}.cls-61{fill:#d54635;}.cls-62{fill:#dd7d60;}.cls-63{fill:#fc915a;}.cls-64{fill:#feaf57;}.cls-65{fill:#fdc067;}.cls-66{fill:#fec970;}.cls-67{fill:#f8a151;}.cls-68{fill:#f8975d;}.cls-69{fill:#ef8e5e;}.cls-70{fill:#e41c28;}.cls-71{fill:#fbb15d;}.cls-72{fill:#fed765;}.cls-73{fill:#f54327;}.cls-74{fill:#fb7c37;}.cls-75{fill:#f7632f;}.cls-76{fill:#fa5e31;}.cls-77{fill:#ed3126;}.cls-78{fill:#fa6837;}.cls-79{fill:#de1c27;}.cls-80{fill:#e74c2f;}.cls-81{fill:#ea7941;}.cls-82{fill:#e9884e;}.cls-83{fill:#fed068;}.cls-84{fill:#fb763c;}.cls-85{fill:#fd8c48;}.cls-86{fill:#fb8144;}.cls-87{fill:#de3429;}.cls-88{fill:#fe9c4a;}.cls-89{fill:#fec159;}.cls-90{fill:#feaa49;}.cls-91{fill:#fdbb52;}.cls-92{fill:#fecd61;}.cls-93{fill:#f98a40;}.cls-94{fill:#fda94a;}.cls-95{fill:#fa9745;}.cls-96{fill:#f29050;}.cls-97{fill:#f3562d;}.cls-98{fill:#fc863b;}.cls-99{fill:#fe9241;}.cls-100{fill:#f27439;}</style></defs><title>Asset 2</title><g id="Layer_2" data-name="Layer 2"><g id="Layer_1-2" data-name="Layer 1"><path class="cls-1" d="M345,346H317c-1.42-1.15-3.13-1.12-4.77-1-3.9.34-6.4-1.61-7.84-4.92-6.8-15.69-13.62-31.37-20.95-46.83a7,7,0,0,1-.29-.95,5.1,5.1,0,0,1,1.11-4.18c7.41-9.49,14.76-19,22.95-27.88a7.51,7.51,0,0,1,2.37-1.77c8-2.39,16.36-3,24.57-4.26,4.77-.74,9.46-2,14.3-2.28,2-.12,4-.55,5.77.83a4.27,4.27,0,0,1,1.21,3.3c-1.27,16.9-2.75,33.79-3.94,50.68-.87,12.38-4.43,24.19-5.49,36.44A7.09,7.09,0,0,1,345,346Z" transform="translate(-0.93 -0.41)"/><path class="cls-2" d="M573,346H562c-9.07-1.13-18.18-.28-27.27-.48-6.65-.14-8.22-1.75-7.28-8.43,1.6-11.32,2.55-22.72,3.61-34.1.41-4.49,1.4-8.83,4-12.66,2.88-3.7,4.5-8.11,6.7-12.19,2.9-5.38,4.88-6.14,10.4-3.47,13.76,6.65,27.28,13.76,41,20.48,8.22,4,9.27,3.85,13.13-4.62a223.65,223.65,0,0,1,14.36-27.28,10.61,10.61,0,0,0,3.95-7.65,18.65,18.65,0,0,1,4.18-7.43c2.77-1.85,3-5.3,4.94-7.73a3.31,3.31,0,0,1,1.46-.67c3.34.78,3.32,3.62,3.88,6.17,3.25,14.92,3.18,30.13,4.11,45.26-.63,3.84-3.47,5.16-6.79,5.36-8,.46-15.55,3.4-23.59,3.51a11,11,0,0,0-8.71,4.26c-3.26,4.35-6.55,8.69-9.61,13.21-5.27,7.76-10,16-16.85,22.62A36.26,36.26,0,0,0,573,346Z" transform="translate(-0.93 -0.41)"/><path class="cls-3" d="M345,346c-2.36-3.93-.51-8,.29-11.66,4.47-20.64,5.59-41.6,6.77-62.58.3-5.27,1.28-10.51,1.94-15.76,2.11-1.6,4.14-.53,5.33.93,4.25,5.26,10.81,7.75,15,13,1.45,1.82,3.13,3.45,4.21,5.54a6,6,0,0,0,3,3.24c4.64,1.66,8.08,5.43,12.29,7.4,6.44,3,9.28,9.37,14.65,13.12,7.86,5.48,14.26,12.82,22.64,17.6,1.76,1,3.55,1.88,4.22,4,.16,3.29-2.43,4.55-4.6,6-7.95,5.18-16.19,9.88-24.14,15.08-1.94,1.26-4,2.33-5.61,4.11Z" transform="translate(-0.93 -0.41)"/><path class="cls-4" d="M701,77v4c-14.53,14.31-28,29.59-42,44.45-5.19,5.53-9.65,11.8-15.87,16.35-3.57,1-5.5-1.45-7.55-3.63C621,122.6,606,107.33,591.65,91.51c-2-2.22-4.57-3.83-6.7-5.94a2.57,2.57,0,0,1-.06-3,6.2,6.2,0,0,1,2.22-1.29c15.5-4.4,31.5-6.42,47.2-9.87,4.05-.89,8.28-.47,12.43-.18,14.89,1,29.81,1.49,44.68,2.85C694.77,74.34,698.54,73.67,701,77Z" transform="translate(-0.93 -0.41)"/><path class="cls-5" d="M573,346c-1.73-3,.48-5.23,2.28-6.33,6.06-3.68,8.28-10.25,12.31-15.41,5-6.38,9.09-13.43,13.8-20a13.72,13.72,0,0,1,11.51-6.07c8.45.26,16.22-3.71,24.64-3.34A4.94,4.94,0,0,0,642,292c14.8-10.92,28-23.74,41.92-35.7,2.42-2.08,4.28-5.89,8.64-4,.88,1.63.46,3.26-.13,4.83a27,27,0,0,0-1.67,9.29c0,2.2-.22,4.56-1.9,6.05-3.62,3.23-3.31,7.57-4.33,11.74-2.51,10.29-4.46,20.82-8.95,30.53-2.08,4.52-5.51,5.22-9.66,1.4-4.89-4.49-9.77-9-14.36-13.85-3.79-4-3.76-3.94-6.23.93a21.9,21.9,0,0,0-2.57,11,8.67,8.67,0,0,1-.78,4.89c-3.9,6.29-3.39,13.87-6.2,20.45-1,2.33-.23,3.29,2.25,3.59,2.22.28,5.21-.68,6,2.82Z" transform="translate(-0.93 -0.41)"/><path class="cls-6" d="M537,290c-4.77,7-4.1,15.22-4.82,23-.77,8.22-1.68,16.41-2.9,24.56-.92,6.16-.08,7.44,6.11,7.46,7.13,0,14.26,0,21.4,0,1.77,0,3.69-.48,5.21,1H504c-4.42-1.08-8.91-.41-13.37-.47-10.15-.11-20.3,0-30.44,0-4.49,0-6.42-1.48-6-5.93,1-11.39.65-22.91,3.17-34.16,1.31-4.34,3.77-7.1,8.73-7.35,15.56-.77,30.84-4,46.32-5.48a35.93,35.93,0,0,1,4.94-.49c7,.29,13.85.27,19.29-5.18C537.89,287.78,537.65,288.86,537,290Z" transform="translate(-0.93 -0.41)"/><path class="cls-7" d="M1,105V65c2.47-3.68,6.83-3.88,10.39-5.39,10.24-4.33,19.94-9.83,30.39-13.71,2.18-.81,3.76-2.69,5.41-4.35C52.46,36.25,58.11,31.34,63.34,26c1.07-1.1,2.18-2.07,3.89-1.78a3,3,0,0,1,1.34.77c2.52,6.86,5,13.75,7.31,20.65,3.68,11.06,8.39,21.73,11.79,32.88a17.81,17.81,0,0,1,1,3.85c.24,3.31-1.57,4.75-4.64,3.42a23.47,23.47,0,0,1-8.64-6.66C67.83,70,58.48,62.66,50.53,53.91c-.84-.93-1.8-2.29-3.32-1.66S45.91,54.5,46,55.76c1.14,13.6,1.13,27.27,2.44,40.83.78,8.15-.77,16.3.66,24.4a3.55,3.55,0,0,1-1.67,3.44c-1.82,1-3.67.43-5.29-.31-12.88-5.88-25.89-11.46-38.8-17.29A10,10,0,0,1,1,105Z" transform="translate(-0.93 -0.41)"/><path class="cls-8" d="M644,346c-2.21-1.79-4.81-.91-7.22-.95-3.77-.07-5.61-1.1-3.3-5a22.91,22.91,0,0,0,2.76-9.43c.38-3.54.85-7.25,3.43-10.24a5.38,5.38,0,0,0,1.22-3.69c-.72-5.8,1-11,3.44-16.1.78-1.6,1-3.9,3-4.24s3.11,1.62,4.21,3c4.83,6.13,11.11,10.78,16.55,16.29,2.73,2.77,4.92,2.12,6.06-1.77,2-6.78,4.6-13.31,6.07-20.31,1.13-5.44,3.17-10.64,3-16.34a3.85,3.85,0,0,1,1.47-3c4.5-2.44,4.61-6.47,4.3-10.73s2.89-7.41,3-11.46c-.48-1.32.19-2.16,1.19-2.86,3.48-1.47,6.12-.6,7.81,2.85,0,30.17,0,60.33.08,90.5,0,3-.59,3.62-3.58,3.59C679.67,345.91,661.83,346,644,346Z" transform="translate(-0.93 -0.41)"/><path class="cls-9" d="M205,346H140a11,11,0,0,1-6.1-7.94c-1.5-6.39-3.82-12.64-3.16-19.39a6.27,6.27,0,0,1,2.66-3.77,30,30,0,0,0,6.46-4.65c12.42-12,25-23.89,37.58-35.74,1.69-1.59,3.24-3.47,6-2.83,2.07,1.1,2.92,3.13,3.72,5.13A48.89,48.89,0,0,0,194,289.5c2.62,3.26,1.79,7.78,4.32,11a80,80,0,0,0,4.2,7.88c2.18,3.36,1.49,6.16-.46,9.18-4.15,6.44-9.53,11.84-14.57,17.54-1.6,1.81-3.49,3.37-5,5.93,6.08.39,11.68,0,17.26.17C202.61,341.28,206.13,341.27,205,346Z" transform="translate(-0.93 -0.41)"/><path class="cls-10" d="M701,252c-2.31-2.11-5.11-2.2-8-2a5.71,5.71,0,0,1-5.21.64c-16.06-4.62-32.18-9-48.12-14a5.68,5.68,0,0,1-1.3-.71,2.91,2.91,0,0,1-1-1.19c-.49-3.32,1.88-5.16,3.86-7.08,14.31-13.85,28.17-28.14,42.34-42.13,2.49-2.45,4.53-5.29,6.89-7.85,4.54-2.2,7.69,0,10.49,3.3Z" transform="translate(-0.93 -0.41)"/><path class="cls-11" d="M284,292a214.47,214.47,0,0,1,15.88,34c1.69,4.8,4.84,8.94,6.26,13.94a5.71,5.71,0,0,0,6.17,4.08c1.86-.11,3.69,0,4.69,2H261c-9.65.14-15.72-5.25-20.49-12.95-1.36-2.18-4-3.5-5.21-5.91-1-1.94-1.94-3.89-.74-6.09,13.33-9.21,27.34-17.37,40.8-26.39C277.85,293,280.47,290.76,284,292Z" transform="translate(-0.93 -0.41)"/><path class="cls-12" d="M1,317V258c1.07-1.3,2.25-2.5,4-2.66,8.18-.77,16.35-1.73,24.57-2.14a8.85,8.85,0,0,1,4.31.93c2.3,1.53,2.17,4.42,3.49,6.37,4.15,6.12,3.91,12.18,3.08,19.43-1.06,9.39.52,19.17.82,28.78a29.24,29.24,0,0,1,.08,4,7.7,7.7,0,0,1-3.49,6c-11.39-.1-22.81,2.18-34.17-.51A6.38,6.38,0,0,1,1,317Z" transform="translate(-0.93 -0.41)"/><path class="cls-13" d="M132,318c1.12,9.78,2.09,19.59,8,28H89c-4.11-.7-6.77-3.16-8.37-6.9-5.74-13.41-11.91-26.64-17.9-39.94a6,6,0,0,1-.54-4.35,3.26,3.26,0,0,1,1.58-1.69,5.36,5.36,0,0,1,4.35.19c19.51,8.87,40.49,13.76,60.07,22.43A10.06,10.06,0,0,1,132,318Z" transform="translate(-0.93 -0.41)"/><path class="cls-14" d="M701,28V76c-9.86-2.56-18.77-7.39-27.71-12-6.49-3.36-12.51-7.6-19.69-9.59a15.12,15.12,0,0,1-6.35-3.87,28.19,28.19,0,0,0-11.43-6.84A2.67,2.67,0,0,1,634.73,41c14.31-8,26.9-18.61,40.66-27.46a12.37,12.37,0,0,1,3.52-1.81,7.68,7.68,0,0,1,7.6,2.45C690.94,19.21,697.37,22.14,701,28Z" transform="translate(-0.93 -0.41)"/><path class="cls-15" d="M643,141c10.45-12.7,22.06-24.36,33.09-36.53,6.47-7.14,13.32-13.95,19.84-21.06,1.48-1.61,2.84-2.7,5.06-2.4v8c-2.27,5.26-.37,10.75-.84,16.14a221.92,221.92,0,0,0-.16,29.63,4.67,4.67,0,0,0,1,3.23v15a43.32,43.32,0,0,1-21.45.37,172.77,172.77,0,0,1-22.37-6c-4.49-1.5-9.8-.32-13.61-4.1A3.34,3.34,0,0,1,643,141Z" transform="translate(-0.93 -0.41)"/><path class="cls-16" d="M679,13Q663.9,23.32,648.78,33.62c-2.19,1.48-3.65,3.69-5.94,5.18A12,12,0,0,1,635,41c-1.81,1.36-3-.13-4.39-.92A252.6,252.6,0,0,1,608.33,25.8c-1.86-1.36-4-2.34-5.7-3.91-1.15-1.59-2.58-3-3.23-4.92a3.17,3.17,0,0,1,.37-2.38C603.24,10.1,606.08,5.14,610,1h79c1,3.91-2.35,9.43-6.76,10.87C681.16,12.23,680,12.23,679,13Z" transform="translate(-0.93 -0.41)"/><path class="cls-17" d="M68,25l-1,0a2.45,2.45,0,0,1,.35-2.71A157.28,157.28,0,0,1,89,1h56c2.17,1.49,3,3.85,4.13,6.07a173.22,173.22,0,0,1,7.54,16.75c1.22,3.25,3.1,6.85-.21,10.16-3.53,1.6-7.22,1.36-10.78.48-9.07-2.26-18.42-2.09-27.62-3.18-11.34-1.34-22.85-1.81-34.27-2.65C78.59,28.24,72.8,28.23,68,25Z" transform="translate(-0.93 -0.41)"/><path class="cls-18" d="M1,225V201c3.25-4.68,8.67-6,13.41-8,9-3.81,17.67-8.22,26.71-11.87,2.13-.86,4.26-2.06,6.51-.25a5.77,5.77,0,0,1,1.19,5.16c-4.67,22.39-7.45,45.14-13,67.36a2.29,2.29,0,0,1-1.14,1c-5.55-1.19-9.93-3.78-13.15-8.82-2.25-3.53-6.16-5.85-9.26-8.78C8.31,233.07,4.72,229,1,225Z" transform="translate(-0.93 -0.41)"/><path class="cls-19" d="M1,166V143c4.67-4.61,11.1-5.74,16.77-8.29,7.7-3.47,15.6-6.52,23.51-9.52a14.47,14.47,0,0,1,6.34-.62,3.2,3.2,0,0,1,1.31,1.11c1.28,2.28,1.2,4.82,1.21,7.28,0,14.42-.63,28.84.43,43.24a7.42,7.42,0,0,1-.35,2,3.75,3.75,0,0,1-1.56,2.12,2.42,2.42,0,0,1-1.63.27,37.41,37.41,0,0,1-13-2.67c-9.31-3.43-18.91-6-28.23-9.4C4.07,167.84,2.28,167.43,1,166Z" transform="translate(-0.93 -0.41)"/><path class="cls-20" d="M218,1h61c.59,3.38-5.68,24.47-7.95,26.62s-4.85,2.8-7.69,3.25c-13.5-1.29-27.15-.68-40.56-3.51-5.47-1.16-11.39.41-16.79-1.48-3.8-1.33-8.47-.06-11.44-3.8a3.76,3.76,0,0,1-.39-2.42C198.53,14,203.44,9,210,5.84A46,46,0,0,0,218,1Z" transform="translate(-0.93 -0.41)"/><path class="cls-21" d="M68,23c-.33.66-.67,1.32-1,2-3.73,3.57-7.77,6.87-11.15,10.75a58.39,58.39,0,0,1-27,17.54A22,22,0,0,0,23,56.08C16.28,60.69,8.37,62.16,1,65V61c.58-.34-.24-.22.38-.3,7.21-.86,9.21-6.87,11.54-12.15,3.68-8.35,8-16.38,11.3-24.93,2.47-6.5,6.49-12.31,9-18.83A7.66,7.66,0,0,1,37,1H58C62.35,7.88,65.34,15.37,68,23Z" transform="translate(-0.93 -0.41)"/><path class="cls-22" d="M636,43a11.73,11.73,0,0,1,10.06,4.26A18.7,18.7,0,0,0,654.62,53c11,3.07,19.75,10.5,30,14.86A102.23,102.23,0,0,1,701,76v1c-6.78-2.11-13.84-1-20.76-1.73-12.82-1.4-25.78-1.47-38.67-2.32C636.14,72.59,631,74,625.86,75,612.89,77.59,600,80.31,587,83a1.89,1.89,0,0,1-.38-2c3-4.61,8.12-6.8,12.18-10.19,10.59-8.86,21.42-17.44,32.32-25.93C632.52,43.72,633.87,42.23,636,43Z" transform="translate(-0.93 -0.41)"/><path class="cls-23" d="M235,321c.38,3.84,1.86,7,5.25,9.14,2.5,1.56,4,4.11,5.36,6.47,2.65,4.55,6.12,7.27,11.47,7.46A5.26,5.26,0,0,1,261,346H205c-.53-3-2.45-3.31-5.15-3.22-6.92.22-13.85.07-21.64.07,5.87-6.65,10.95-12.85,16.54-18.58,3.07-3.16,5.05-7,7.63-10.39,1-1.28.09-2.42-.54-3.66-1.56-3.1-4.2-5.63-4.84-9.21-.61-1.68-1.83-3.57.08-4.94,1.38-1,2.83.3,4.13,1,5.61,3,5.92,3.6,5,9.92,2.55.42,4.8-2.67,7.47-.68a56.22,56.22,0,0,1,5.53,5c4.4,4.27,10.18,6.19,15.4,9.07C234.75,320.6,234.88,320.8,235,321Z" transform="translate(-0.93 -0.41)"/><path class="cls-24" d="M63,295c3.35,7.7,6.54,15.49,10.11,23.09,2.67,5.67,5.3,11.35,7.61,17.19,1.7,4.32,3.9,8.4,8.28,10.72H42c-1.94-1.41-3.49-3.16-3.62-5.64-.33-6.42-1-12.81-1.58-19.2A4.22,4.22,0,0,1,38,318l2-5c5.54-6.36,12.46-11.21,18.52-17C59.68,294.9,61.21,294,63,295Z" transform="translate(-0.93 -0.41)"/><path class="cls-25" d="M657,146c5.27,1.26,10.66,2.16,15.77,3.87A48.43,48.43,0,0,0,692.69,152a21.88,21.88,0,0,1,8.31,1v28c-3.48.08-6-4.72-10-2a16.81,16.81,0,0,1-8.55,3.74c-12.39,1.62-24.45,5-36.75,7.11-6.32,1.08-12.4,3.88-19,3.06-3.57-3.43-.86-6.17,1.68-7.63,7.09-4.09,13.22-9.62,20.28-13.53,5.88-3.25,10.92-7.54,16.61-11,2.8-1.69,6.07-2.54,8.9-4.81-4.63-2.43-9.44-3-14-4.32-1.94-.57-3.87-1.15-5-3C654.29,147.07,654.68,146.56,657,146Z" transform="translate(-0.93 -0.41)"/><path class="cls-26" d="M512,1h77c3,3.59,4.94,7.88,7.12,12,1,1.83,1.22,3.88-1.09,5.21a6.16,6.16,0,0,1-2.88.76c-25.54-.37-51,3.55-76.54,2.1a43.06,43.06,0,0,1-6.88-1C503.52,14.28,505,5.71,512,1Z" transform="translate(-0.93 -0.41)"/><path class="cls-27" d="M413,1h39c5.77,6.28,12,12.18,15.71,20.08,1,2.1,4.61,2.69,3.42,6a3.77,3.77,0,0,1-3,1.37c-22,1.06-44,.79-66,.18a7.7,7.7,0,0,1-2.48-.77c-1.48-1.12-1.35-2.53-.63-4,3.22-6.52,6.38-13.08,9.92-19.44C409.85,2.73,411.46,2,413,1Z" transform="translate(-0.93 -0.41)"/><path class="cls-28" d="M37,1C31.89,12.42,25.92,23.44,21.29,35.1c-3.15,8-7.29,15.52-11,23.24C8.2,62.69,4.18,60.42,1,61,1,42.1,1.06,23.2.93,4.3.91,1.66,1.27.85,4.17.91,15.11,1.14,26.06,1,37,1Z" transform="translate(-0.93 -0.41)"/><path class="cls-29" d="M459,305c-1,10.68-1.9,21.37-2.95,32-.69,6.95.08,7.95,6.87,8,12,0,23.91,0,35.86,0,1.78,0,3.7-.48,5.22,1H401c-.22-2.36,1.19-3.45,3.05-4.58,9-5.52,18-11.2,27-16.8,1.55-1,3.15-1.86,4-3.62.07-.22.15-.44.22-.66a49,49,0,0,1,9.89-9.62c3.67-2.88,6.19-7.22,10.83-9.09.91-.37,1.69-1.05,2.75-1C460.32,302,459,303.55,459,305Z" transform="translate(-0.93 -0.41)"/><path class="cls-30" d="M330,1h29c4.28,4.83,4.65,10.82,5,16.82-.57,1.8-2.08,2.47-3.66,3.07-10.57,4-20.76,9-31.35,12.81-10.42,3.77-20.33,8.9-31.12,11.65a1.84,1.84,0,0,1-1.5-1.55,3.16,3.16,0,0,1,.2-1.46c10.22-12.23,19.25-25.4,29.38-37.7C327.13,3.19,328.69,2.26,330,1Z" transform="translate(-0.93 -0.41)"/><path class="cls-31" d="M38,318c1.06,6.78,2.5,13.54,2,20.46-.21,2.81,1.69,4.94,2,7.54-12.83,0-25.67-.07-38.5.06-2.15,0-2.6-.41-2.57-2.56.16-8.83.07-17.67.07-26.5a10.94,10.94,0,0,1,7.69-.08c6.64,2.51,13.33-.73,20,0C31.82,317.26,35,317,38,318Z" transform="translate(-0.93 -0.41)"/><path class="cls-32" d="M471,26c-3.94-1.43-4.3-5.6-6.4-8.12-3-3.61-5.77-7.61-9.19-10.95C453.71,5.26,452.3,3.46,452,1h60c-4.3,5.34-5.22,11.43-4,18a3.76,3.76,0,0,1-2.66,3.17c-9.44.75-18.56,3.33-27.84,5C475.2,27.56,472.86,28.08,471,26Z" transform="translate(-0.93 -0.41)"/><path class="cls-33" d="M363,18,359,1h54a175.74,175.74,0,0,0-9.5,17.82c-1.27,2.82-3,5.43-4.51,8.14l-.66.5c-3.33.11-6.84-.07-9.69-1.52-5.25-2.67-10.7-3-16.35-3.28C368.71,22.48,365,21.75,363,18Z" transform="translate(-0.93 -0.41)"/><path class="cls-34" d="M47,125c-7.94,3.15-15.83,6.45-23.84,9.41C15.72,137.12,8.81,141.21,1,143V105c5.19,0,9.33,3.08,13.84,5,10.77,4.53,21.44,9.32,32.15,14a.6.6,0,0,1,.23.65C47.14,124.86,47.07,125,47,125Z" transform="translate(-0.93 -0.41)"/><path class="cls-35" d="M195,19c0,.67,0,1.34,0,2a4.36,4.36,0,0,1-4.32,3.38,12.43,12.43,0,0,0-5.52,1.93c-6.76,3.55-14.39,4.6-21.38,7.5a7.94,7.94,0,0,1-4.84.54A3,3,0,0,1,157,33c-.44-7.35-4.24-13.52-7.06-20C148.22,9,145.8,5.33,145,1h23c8.45,2.41,14.31,8.48,20,14.56C190.08,17.73,193.12,17,195,19Z" transform="translate(-0.93 -0.41)"/><path class="cls-36" d="M330,1c-1.55,5.13-5.93,8.28-8.89,12.41-6.65,9.27-14,18.07-21.08,27A20.28,20.28,0,0,1,297,43c-2.72-.45-3.43-2.49-3.47-4.76-.15-9.21-2.94-18-3.94-27.09-.37-3.37-2-6.85.4-10.14Z" transform="translate(-0.93 -0.41)"/><path class="cls-37" d="M1,166c7-.1,13,3.72,19.54,5.46,8.94,2.4,17.66,5.66,26.47,8.55.25.22.32.44.23.65s-.18.32-.26.32c-5.23,1.13-9.83,3.87-14.67,6C21.8,191.45,11.43,196.29,1,201Z" transform="translate(-0.93 -0.41)"/><path class="cls-38" d="M290,1c2.1,10.52,2.63,21.32,5.62,31.71.95,3.27-2,7.22,1.39,10.28h0a2.5,2.5,0,0,1-3.19.47c-6.81-4.32-14.59-6.55-21.73-10.17a22,22,0,0,0-4.64-1.62c-1.46-.37-3.53-.2-3.42-2.67,4.58-.5,7.61-2.49,8.14-7.54.77-7.3,4.56-13.65,6.85-20.47Z" transform="translate(-0.93 -0.41)"/><path class="cls-39" d="M1,225c2.79.44,4.46,2.24,6.31,4.29,4.07,4.52,8.18,9.09,13.5,12.29.28.17.66.35.76.61,2.16,6,7.81,8.39,12.44,11.83a.59.59,0,0,1,.24.65c-.09.22-.18.32-.26.32-11,.46-22,1.5-33,3Z" transform="translate(-0.93 -0.41)"/><path class="cls-40" d="M195,19c-4.35,1.54-7.34,0-9.41-4-1-2-3.63-2.57-4.83-4.09C177.26,6.52,171.69,5,168,1h50c-.54,3.53-3.61,4.54-6.16,5.82-4.58,2.3-8.86,4.77-12,9C198.79,17.31,197.21,18.9,195,19Z" transform="translate(-0.93 -0.41)"/><path class="cls-41" d="M68,23c-1-.14-2.22-.39-2.45-1.39C63.87,14.44,58.67,8.54,58,1H89c-1.23,4.34-5.25,6.26-8.08,9.19C76.7,14.55,72.32,18.74,68,23Z" transform="translate(-0.93 -0.41)"/><path class="cls-42" d="M679,13a43.38,43.38,0,0,0,8.15-7.58c1.12-1.33,2-2.61,1.85-4.4,4,0,9.78-1.55,11.37.39,2,2.45.6,7.74.62,11.8,0,4.94,0,9.87,0,14.81a60.73,60.73,0,0,1-15.68-12.51C683.23,13.27,681.4,13.07,679,13Z" transform="translate(-0.93 -0.41)"/><path class="cls-43" d="M596,17c-.77-3.66-3.28-6.4-5.1-9.49A10.87,10.87,0,0,1,589,1h21c-.81,6.91-7.22,10.32-10,16A2.59,2.59,0,0,1,596,17Z" transform="translate(-0.93 -0.41)"/><path class="cls-4" d="M701,138a2.38,2.38,0,0,1-2-2.46c-.89-10.44-1.19-20.93.33-31.29.48-3.28-.59-6.18-.35-9.26a10.28,10.28,0,0,1,2-6Z" transform="translate(-0.93 -0.41)"/><path class="cls-44" d="M354,253l-45,7c-3.11,2-6.14,1.42-8.79-.72-2.28-1.83-3.9-4.17-2.4-7.37,1.76-.79,3.28,0,4.69.86,2.68,1.56,3.47.61,3.55-2.18.17-6.83-.71-13.6-1.43-20.34-1-9.62-.05-19.26-.85-28.86a4.82,4.82,0,0,1,1.65-4c4.64-2.79,9.93-3.65,15.08-4.79,10.66-2.35,21.16-5.44,32-7.08,13.51-1.95,27.19-1.63,40.73-3.12a11.56,11.56,0,0,1,5.42.31c3.3,1.77,1.44,4,.26,5.83-3,4.6-6.05,9.16-9.06,13.74-10.23,15.57-21,30.78-30.91,46.57-1.06,1.69-2.19,3.35-4.17,4.13Z" transform="translate(-0.93 -0.41)"/><path class="cls-45" d="M435,321c-7.42-3.66-13.26-9.41-19.73-14.32-4-3.07-7.42-7.17-12-9.58-.15-.07-.39-.13-.42-.24-1.9-6-8-7.09-12-10.66-2.65-2.38-5.3-4.53-8.86-5.19a5.66,5.66,0,0,1-4.26-3.13,29.09,29.09,0,0,0-13.89-14,8.22,8.22,0,0,1-3-3.21A9.57,9.57,0,0,0,354,256c0-1,0-2,0-3v0c6.19-4.54,13.71-3.67,20.65-4.64,18.78-2.63,37.61-5,56.42-7.44a11,11,0,0,1,4-.16c1.29.41,2.35,1,2.32,2.6-.66,6.29-.26,12.6-.29,18.89-.07,17.1,0,34.2,0,51.3,0,2.69,0,5.35-2,7.46Z" transform="translate(-0.93 -0.41)"/><path class="cls-46" d="M298,252c2.29,6.95,2.85,7.36,11,8Q297.27,274.49,285.53,289a5.28,5.28,0,0,0-1.53,3c-11.69,6.23-22.64,13.67-33.71,20.9-3.43,2.24-7.46,3.6-10.07,7.13-1.18,1.58-3.42.87-5.22,1h0c-2-2.86-.28-5.53.7-8,5.66-14.57,11.15-29.19,16.77-43.77,3.72-9.61,7.26-19.29,10.79-29a44.8,44.8,0,0,1,5-10.26,3,3,0,0,1,1.35-.69c1.82-.21,3.13.83,4.41,1.89,7,5.82,14.12,11.42,21.39,16.87C296.68,249,298,250.11,298,252Z" transform="translate(-0.93 -0.41)"/><path class="cls-47" d="M638,234q0,.5,0,1c-.46,2.59-3,3.82-4,6h0c-1.32,2.67-2.43,5.45-4,8a21,21,0,0,0-4,7,42.71,42.71,0,0,1-4,8,237.92,237.92,0,0,0-11.82,21.9c-1.17,2.57-2.22,5.2-3.51,7.71-3.81,7.43-4.91,7.77-12.28,4.09-14.56-7.28-29.19-14.44-43.64-21.93-3.79-2-5.64-1.18-7.4,2.39-2,4-3.48,8.3-6.35,11.83v-3l-.12-.69c.06-3.65,2.56-6.28,4-9.35a16.81,16.81,0,0,0,1.87-5.54,26.26,26.26,0,0,0,.82-3c5.05-11.2,10.09-22.4,15.54-33.41,2-4.07,4.9-6.13,9.54-5.37a51.37,51.37,0,0,0,10.44.37c13.63-.57,27.19,1.38,40.81,1.13,4.43-.08,8.7,2.36,13.26,1.07C635,232.13,636.76,232.37,638,234Z" transform="translate(-0.93 -0.41)"/><path class="cls-48" d="M634,241c.23-2.73.62-5.36,4-6,7.73.5,14.65,4,22,5.93,11,2.84,22,6.05,33,9.1-.33.66-.67,1.32-1,2-8.67,6.35-16.42,13.79-24.36,21-6.49,5.88-13.92,10.71-19.62,17.46-1.62,1.92-3.89,1.51-6,1.55-1.8-5.25-1.87-10.91-1.73-16.16.29-10.92-2.42-21.36-3.38-32C636.76,242.31,636.68,240.13,634,241Z" transform="translate(-0.93 -0.41)"/><path class="cls-48" d="M630,249a12.7,12.7,0,0,1,4-8C633.74,244.2,632.66,247,630,249Z" transform="translate(-0.93 -0.41)"/><path class="cls-48" d="M622,264a19.37,19.37,0,0,1,4-8C625.73,259.2,624.66,262,622,264Z" transform="translate(-0.93 -0.41)"/><path class="cls-49" d="M585,83c.33.67.66,1.33,1,2,1.07,1.51.8,3.13.44,4.8-3.7,17.07-6.72,34.29-10.44,51.36-.6,2.74-.93,5.72-4.28,6.75-4.79.12-9.05-1.78-13.32-3.58-12.4-5.21-25.4-8.71-38-13.44-3.07-1.16-6.47-1.76-8.37-4.93a8.09,8.09,0,0,1-.13-5.85c2.87-9.19,4.89-18.61,7.35-27.91a8.59,8.59,0,0,1,3-5c7.67-2.36,15.69-2.19,23.55-3.09,11-1.26,22.09-1.85,33.16-2.45C581.13,81.51,583.32,81.15,585,83Z" transform="translate(-0.93 -0.41)"/><path class="cls-50" d="M585,83c-18.17,1.76-36.46,2.21-54.56,4.82A67.58,67.58,0,0,1,522,88l-.69-.47c-3.57-7.78-4.41-16.31-6.36-24.5-2.72-11.48-5.29-23-7.6-34.58-.45-2.26-1.24-4.53-.3-6.85,2-2.65,4.37-1.86,5.85.1,5.6,7.38,14.51,10.36,21.14,16.36,1.82,1.66,4,3,5.7,4.79,9,9.6,19.87,17,30.13,25.13,5.44,4.3,10.75,8.8,16.73,12.39L587,81v2Z" transform="translate(-0.93 -0.41)"/><path class="cls-51" d="M571,147c2.55-.61,2.52-2.91,2.88-4.74,3.46-17.2,6.79-34.42,10.23-51.61A46,46,0,0,1,586,85a16.92,16.92,0,0,1,5.61,4.07c6.51,6.42,12.1,13.72,18.51,20.18,6.18,6.23,12,12.83,18.31,18.91,3,2.88,6.08,5.63,8.51,9.08,1.4,2,3.1,4,6.07,3.74l1,1c-2.06,2.54-5.11,2.05-7.81,2.44-9.67,1.38-19.45,1.52-29.16,2.41-10.38.95-20.78,1.63-31.17,2.41a8.68,8.68,0,0,1-3.44-.21C571.54,148.64,570.81,148.13,571,147Z" transform="translate(-0.93 -0.41)"/><path class="cls-52" d="M545,270l-1,2c-2.09,5.11-5.42,9.65-7,15h0c-2.37,5.41-6.43,7.26-12.34,7.11-14.32-.38-28.36,2.63-42.5,4.35-4.94.59-9.81,2-14.82,1.51-4.1-.36-7.23.58-8.34,5-.85-1.34-.11-2.67,0-4-1.06-2,.09-3.55,1-5.1,6.14-10.83,11.57-22,17.35-33,1.17-2.22,2.45-4.38,5.11-5.15a14.06,14.06,0,0,1,5.92,0c17.16,3.71,34.36,7.21,51.65,10.32C541.8,268.32,543.6,268.64,545,270Z" transform="translate(-0.93 -0.41)"/><path class="cls-53" d="M157,33l2,.06c1.07,2,.11,3.92-.61,5.74-5.44,13.78-10.48,27.71-16,41.44a11.71,11.71,0,0,1-4.1,5.53c-12.52,2.62-25.22,4.12-37.86,6a30.53,30.53,0,0,0-15.28,6.42c-10,8-20.27,15.63-30.35,23.51-1.82,1.43-3.63,3-6,3.36H48l-1,0c0-.33,0-.66,0-1,.28-.95.89-1.94.77-2.83-1.67-12.13-.52-24.4-1.85-36.51-1-8.74-.15-17.58-1.8-26.25a3.71,3.71,0,0,1-.08-1c.25-2.85-1.22-6.63,2.29-8,3.28-1.28,4.76,2.34,6.67,4.2C59.71,60.16,66.43,66.71,72.9,73.5c3.43,3.59,6.36,7.67,10.72,10.23,1,.61,2.07,2.27,3.44,1.26s.09-2.4-.34-3.58q-8.64-23.8-17.31-47.6A20,20,0,0,1,68,25c10.1-.24,19.93,2.36,30,2.83,4.28.21,8.65.6,12.86.64,8.82.08,17.29,3,26.12,2.54C143.71,30.7,150.11,34.34,157,33Z" transform="translate(-0.93 -0.41)"/><path class="cls-54" d="M269,230c-6.12,16.23-12.51,32.37-18.28,48.72-5,14.18-11.57,27.77-15.74,42.26-6.64-.34-11.56-4.23-16.49-8.05a32.35,32.35,0,0,1-4.23-4.21c-1.63-1.85-3.12-3-5.15-.42-1.28,1.6-2.9,2.18-4.7.53-1.64-1.51-1.18-3.05.11-4.32,2.33-2.31.82-3.32-1.2-4.39s-3.68-2.12-5.61-3.24c-1.36,1.17-.44,2.76-.72,4.11-3.71-10.13-10.15-18.95-14-29-.6-1-.12-1.9.46-2.75a9.46,9.46,0,0,1,3.7-2.5c17.56-8.31,35.13-16.63,52.56-25.21,7.6-3.74,15.46-7,23.11-10.6C264.68,230.05,266.75,229,269,230Z" transform="translate(-0.93 -0.41)"/><path class="cls-55" d="M134,316l-1,1c-5.83-1.15-8.25-6.19-10.07-10.6-4-9.73-10.09-18.34-13.88-28.14-2.63-6.79-7.18-12.74-9-19.91-.71-2.78-4.29-3.92-4-7.22a3.64,3.64,0,0,1,.56-1.52,6.59,6.59,0,0,1,3.52-2c3.49-.26,6.72-1.61,10-2.62,11.86-3.64,24-6.43,35.93-9.6,1.61-.42,3.24-.76,4.82.17a2.55,2.55,0,0,1,.82,1.4c-.56,9.68-3.12,19-5.51,28.3-3.89,15.14-6.83,30.49-10.26,45.73C135.53,312.75,135.34,314.58,134,316Z" transform="translate(-0.93 -0.41)"/><path class="cls-56" d="M97,251c.12,1.71,1.22,2.59,2.6,3.37.83.47,2,1.2,2.12,1.93,1.49,10.75,9.17,18.82,12.37,28.87,1.36,4.3,4.24,8.15,6.68,12.05a16.21,16.21,0,0,1,2.55,5.36c1.24,6.18,6.07,9.91,9.7,14.47l-1,1c-2.9,1.08-5.2-.8-7.46-1.85-10.41-4.83-21.55-7.55-32.23-11.58-7.74-2.92-15.73-5.21-23.14-9-1.63-.83-3.25-1.71-5.17-1.59-1-1.79,0-3.22,1-4.51,8.85-11.31,17.66-22.66,26.08-34.3,1.23-1.71,2.5-3.53,4.53-4.5A1.56,1.56,0,0,1,97,251Z" transform="translate(-0.93 -0.41)"/><path class="cls-57" d="M134,316c-.69-2.66-.13-5.25.45-7.83q6.47-28.47,13-56.94c1.1-4.77,2.37-9.49,3.56-14.23,1.41-1.17,2.55-.31,3.49.62Q170.06,253.07,184,270l-1,2c-4.21,3.71-8.54,7.29-12.6,11.16-10,9.49-19.82,19.12-29.74,28.67C138.74,313.67,136.7,315.38,134,316Z" transform="translate(-0.93 -0.41)"/><path class="cls-58" d="M638,234l-5,0c-7-1.27-12.33-7-19.71-7.48a5.27,5.27,0,0,1-4.62-4.07c-1.28-4.27-4.35-5.46-8.37-5.58-6.86-.22-10.89-4.93-14.87-9.66.93-2.5,3.25-3.21,5.38-4,9.78-3.58,19.25-8,29.06-11.47,2.07-.54,4.15-1.29,6.13.26,11.79-2.42,23.57-4.9,35.37-7.26,9.86-2,19.75-3.81,29.63-5.71a41.53,41.53,0,0,1-6.89,8.42q-22.35,22.24-44.61,44.6A17,17,0,0,0,638,234Z" transform="translate(-0.93 -0.41)"/><path class="cls-59" d="M96,251c-6.63,10.12-14.38,19.41-21.59,29.09q-5.19,7-10.41,13.9l-1,1c-6,3.31-10.12,8.73-15.33,12.91-2.42,1.94-4.51,4.29-7.67,5.09a163.83,163.83,0,0,1-1.47-34.22c.42-6.29,1.27-11.36-2.78-16.61-1.38-1.78-1.22-4.75-1.76-7.18,0-.32,0-.64,0-1l1,0c3.44-3.25,8-2.29,11.87-2.4,14.89-.42,29.66-2.33,44.53-2.91C93.26,248.61,95.53,248.14,96,251Z" transform="translate(-0.93 -0.41)"/><path class="cls-60" d="M636,43c-12.63,10.26-25.68,20-37.94,30.71C594.77,76.6,590.71,78.6,587,81v0c-2.28-5.1-1.23-10.66,0-15.37,2.46-9.51,3.73-19.12,5-28.77a61.8,61.8,0,0,1,4.34-14.71c1.5-3.74,3.22-3.93,6.65-1.14,5.66,2.63,11.25,5.51,15.43,10.24,2.26,2.56,5.85,1.37,8.17,4.05,2.15,2.48,5.56,3.87,8.41,5.74Z" transform="translate(-0.93 -0.41)"/><path class="cls-61" d="M626,192l-6,1c-1.76.51-2.78-.59-3.78-1.74-9.75-11.19-21.66-20-32.76-29.69-4.29-3.75-7.06-8.84-11.65-12.23A1.32,1.32,0,0,1,572,148q33.5-3,67-5.92c1.65-.15,3.32,0,5-.06,3.68,3.44,9,1.68,13,4-.9,2.27-.83,3.19,1.28,3.43,5.91.67,11.1,4.38,17.22,4a1.71,1.71,0,0,1,2,1.13c.42,1.39-.56,2.29-1.55,2.81-2.93,1.54-6.3,2.45-8.89,4.41-9.85,7.48-21.15,12.82-30.59,20.9-1.34,1.14-3.3,1.53-4.92,2.36C628.63,186.49,626.06,188.25,626,192Z" transform="translate(-0.93 -0.41)"/><path class="cls-62" d="M603,21c-3.14-1.67-3.94-.67-5.37,2.72-4.61,10.92-3.51,22.84-6.81,33.84C588.5,65.29,589.07,73.32,587,81c-6,.88-9-4.42-12.64-7.25-6.16-4.79-12.4-9.62-18.5-14.52a178,178,0,0,1-15-12.93c-6.46-6.52-14-11.58-21.69-16.47-2.7-1.72-5.28-3.26-6.59-6.42C511.79,21.58,510,20.86,508,21a1.35,1.35,0,0,1-1.6.38L506,21l2-2c9.31,0,18.63-.18,27.93,0,20.08.46,40-3.46,60.09-2.05h4C601.58,17.89,602.86,19,603,21Z" transform="translate(-0.93 -0.41)"/><path class="cls-63" d="M96,251a62.59,62.59,0,0,0-17,.38c-10,1.35-20.08,1.47-30.13,2-4.61.26-9.23.39-13.84.58-1.26-5.77,1.87-10.89,2.53-16.4,1.76-14.77,5.68-29.21,7.66-44,.56-4.21,2.88-8.17,1.79-12.63l0-1,1,0c2.29-1.46,4.46-1,6.57.41,2,2.79,4.6,3.32,8.09,3.38,6.68.12,13.35,1.33,20,2.13,2.78.33,5.54.5,8.32.58,2.58.08,5,.41,6.25,3.08a8.25,8.25,0,0,1,.76,3.87c-.6,16.56,1.23,33.06,1.06,49.61,0,2.53-.15,5-2,6.94,0,.32,0,.64,0,1Z" transform="translate(-0.93 -0.41)"/><path class="cls-64" d="M54,181l-6-1,1-1c1.19-2.53,3.59-3.83,5.66-5.43,8.79-6.76,17.8-13.23,26.38-20.25a7.21,7.21,0,0,1,2.6-1.44,6.06,6.06,0,0,1,2.51-.07c12.25-.24,24.45,1,36.68,1.39,10.21.32,20.48.6,30.66,1.92a7.36,7.36,0,0,1,2.81.9,2.53,2.53,0,0,1,1.06,1.33c-.16,2.65-2.3,3.46-4.22,4.38-16.18,7.75-32.61,15-48.83,22.61-6.88,3.24-13.55,2.55-20.38,1.91-7.53-.71-15-2-22.56-2.6C58.66,183.4,56.11,182.89,54,181Z" transform="translate(-0.93 -0.41)"/><path class="cls-65" d="M83,153c-3.87,5.35-9.73,8.31-14.79,12.21C62,170,56.16,175.46,49,179c-2.12-18-.39-36-1-54h0c2-1.38,3.46,0,4.88,1,9.5,7.22,18.4,15.16,27.71,22.6C81.91,149.68,83.77,150.71,83,153Z" transform="translate(-0.93 -0.41)"/><path class="cls-66" d="M264,29c7.35,1.5,13.75,5.4,20.56,8,4.38,1.69,8,4.69,12.42,6,0,.66,0,1.31,0,2l-.19.7c-7.3,7.56-16.38,12.91-24.39,19.6a3.79,3.79,0,0,1-3.8.45c-9.62-6-19.6-11.26-29.71-16.32-13.19-6.6-26.17-13.58-38.77-21.24-2.5-1.52-5.07-2.53-8-1.66-2.55.38-5.08.75-7.06-1.5,2.61-3.12,7.29-1.05,10-4,5.05,3.32,11.07,3.12,16.62,3.77,15.91,1.86,31.92,2.87,47.89,4.18C261,29.08,262.51,29,264,29Z" transform="translate(-0.93 -0.41)"/><path class="cls-67" d="M399,27l2,.05A298.44,298.44,0,0,1,418.65,57.7c1.56,3.12,3.93,5.76,5.1,9.1a4,4,0,0,1-1.11,2.92,5.84,5.84,0,0,1-2.79,1.62c-2.81-.27-5.06,1.34-7.54,2.2-8.33,2.88-16.66,5.85-25.15,8.16-12.54,3.42-24.44,8.75-37.05,11.85-4.18,1-7.55,4.31-12.1,4.22-2-.91-1.86-2.29-.9-3.88,8.07-6.5,14.47-14.66,20.93-22.57C368.86,58.07,381,46,391.66,32.65A16,16,0,0,1,399,27Z" transform="translate(-0.93 -0.41)"/><path class="cls-68" d="M423,67c-6.08-5.47-7.42-13.78-12-20.12-3.49-4.77-5.34-10.54-9.26-15.06-1.17-1.35-.59-3.18-.71-4.81h68c.73,1.27.28,2.39-.44,3.48-13.31,11.74-26.66,23.43-40.25,34.86C426.82,66.61,425.28,68.13,423,67Z" transform="translate(-0.93 -0.41)"/><path class="cls-69" d="M468,30l1-3,2-1c6.66.09,13-2,19.33-3.53,5.26-1.29,10.4-1.38,15.65-1.49l0,0c.8,1.91-.57,3.13-1.47,4.44C494.14,40.59,482.22,54.6,471.76,69.7c-1.34,1.94-2.67,4.41-5.85,3.7-3.16-2-3-5.05-2.15-8,2.57-9.2,3.07-18.61,3.25-28.06C467.06,34.84,466.89,32.34,468,30Z" transform="translate(-0.93 -0.41)"/><path class="cls-70" d="M482,259c-4.18,4.19-6,9.88-8.52,14.92C468.88,283.08,463.89,292,459,301c-2.1,1.83-3.93,4-6.92,4.55-.59.11-1.46.62-1.59,1.1-1.78,6.61-9.89,7-12.51,12.77a3.32,3.32,0,0,1-3,1.58c0-24.18,0-48.36,0-72.54,0-1.93-1.11-4.51,1.94-5.45,2-.85,3.92-.3,5.83.35,12.12,4.09,24.17,8.43,36.38,12.27a5.47,5.47,0,0,1,2.87,1.89A1.23,1.23,0,0,1,482,259Z" transform="translate(-0.93 -0.41)"/><path class="cls-71" d="M399,27c-11.39,12.88-23.09,25.5-34,38.74-7.26,8.8-15.4,16.81-22.32,25.88A5.07,5.07,0,0,1,338,94a4.51,4.51,0,0,1-4.15-2.75c-.32-.75-.22-1.74-.86-2.29-5.42-4.67-9.18-10.81-14-15.91s-8.27-11.45-13.76-16.21c-2.78-2.41-4.05-6.86-7.66-9.14A2,2,0,0,1,297,45V45c6.13-3.62,13-5.42,19.47-8.21,8.9-3.84,18.2-6.73,26.91-10.91,6.4-3.08,13.17-5,19.61-7.86,5.15,2.3,10.48,3.65,16.19,3a8.23,8.23,0,0,1,6.48,1.76C389.52,26,395.09,23.89,399,27Z" transform="translate(-0.93 -0.41)"/><path class="cls-72" d="M185,25h8c2.62,1.55,2.91,4.36,3.46,6.88C201.23,53.39,205.29,75,209.8,96.6c1.15,5.53-.5,7.32-6.41,8a8.45,8.45,0,0,1-3.93-.38c-20-6.1-40.26-11.54-60.19-18a3.28,3.28,0,0,1-.83-.54L138,85c6.77-13.66,11.26-28.23,17-42.3,1.32-3.23,2.71-6.44,4.06-9.65,7.28-2.3,14.6-4.48,21.8-7A13.38,13.38,0,0,1,185,25Z" transform="translate(-0.93 -0.41)"/><path class="cls-73" d="M435,242c-11.11,2.75-22.57,3.14-33.83,4.88C385.51,249.29,369.73,251,354,253q10.46-15.69,20.9-31.38Q387.45,202.8,400,184a5.16,5.16,0,0,1,4.51-2.43c9.48.15,18.66-2.43,28.09-2.91,11.75-.59,23.4-2.38,35.12-3.51a10.31,10.31,0,0,1,5.37.69c2.77,1.76,1.62,4,.64,6.13-1.33,2.87-3.42,5.31-5,8.05-9,15.57-18.53,30.78-27.92,46.1C439.32,238.58,437.81,240.9,435,242Z" transform="translate(-0.93 -0.41)"/><path class="cls-74" d="M352,187l-33.54,8L306,198a.82.82,0,0,1-1.33-.14c-.62-1.29-.05-2.68-.31-4-.44-6.71,1.43-13.16,2.15-19.74,1-8.91,2.69-17.77,3.19-26.67.47-8.39,2.84-14.1,11.77-15.47,9-3.26,18.56-4.88,27.68-7.89a6.79,6.79,0,0,1,3.44-.19c12.68,5.89,25.57,11.32,38.42,16.86a17.32,17.32,0,0,1,5.94,3.59c1.21,2.45-.68,3.66-2.07,5-11.73,11.28-24,22-35.69,33.32C357.08,184.73,354.41,185.59,352,187Z" transform="translate(-0.93 -0.41)"/><path class="cls-75" d="M352,187q14-13,28-26c5.69-5.3,11.33-10.65,17-16a3.16,3.16,0,0,1,1.38-1.07c3.57-.93,6.87.7,10.3,1.12,19.42,2.36,38.68,5.78,58.08,8.27,2.58.33,5.35.58,7.19,2.9.7,4.16-2.89,4.42-5.25,5.28-6.56,2.4-13.14,4.79-19.77,7-12,4-23.69,8.87-35.78,12.62-3,.94-6.19.87-9.16,1.89l-4,1q-20.28,1.44-40.54,2.85C357,187,354.49,187,352,187Z" transform="translate(-0.93 -0.41)"/><path class="cls-76" d="M305,198l1,0c-1.68,2.24,0,4.49,0,6.74.1,10.12-.22,20.24.95,30.35.75,6.41,1.47,12.85,1.09,19.35-.15,2.68-.61,4-3.39,2-2.14-1.56-4.42-2.94-6.64-4.41q-14.43-10.45-28-22c-.74-3.67,2.17-5.31,4.28-7.17,9.28-8.22,18.86-16.09,28-24.53A2.57,2.57,0,0,1,305,198Z" transform="translate(-0.93 -0.41)"/><path class="cls-77" d="M435,242q18.58-30.19,37.15-60.41A29.15,29.15,0,0,0,474,177a2.16,2.16,0,0,1,2-.67c4.62,2.44,8,6.42,11.79,9.85,8.84,8,16.75,17.07,26,24.73a8.4,8.4,0,0,1,2.48,3.08,3.53,3.53,0,0,1-.94,3.21c-10.58,11.85-18.59,25.69-29.06,37.62-1.19,1.35-2.18,3-4.24,3.15-15.34-4-30.14-9.59-45-15Z" transform="translate(-0.93 -0.41)"/><path class="cls-78" d="M303,199c-6.7,8-15.26,14-22.95,20.89C276.51,223.1,272.69,226,270,230l-1,0c-7.05,3.29-14.11,6.56-21.15,9.88-11.08,5.22-22.19,10.39-33.22,15.74-9.09,4.41-18.12,8.93-27.64,12.36-1.56-2.34.19-3.77,1.59-5.09,16.91-16,33.75-32.14,50.27-48.58a12.8,12.8,0,0,1,3.54-2.73c7.35-3.32,15.4-4,23.08-6,9.94-2.65,20-4.85,30-7.15C298,197.86,300.68,196.65,303,199Z" transform="translate(-0.93 -0.41)"/><path class="cls-79" d="M482,258c7.16-9.33,14.62-18.44,21.35-28.07A165,165,0,0,1,516,214l.55-.65c2.83-1.64,6.05-1.82,9.14-2,18.2-1,36.13-4.61,54.32-5.63,2.15-.11,4.32-.68,6,1.28.23,1.37,1.11,1.87,2.43,2,1,.11,2.51.19,2.77.75,2.78,6.17,8.48,5,13.51,5.69,3.19.43,4.91,2.48,5.32,5.67.35,2.74,1.88,3.74,4.69,4,4,.36,8.18.64,11,4.65,1.63,2.34,6.12.57,7.31,4.23-22.15-.9-44.3-1.76-66.44-2.74-2-.09-3.5-.13-4.48,2C556.42,245.51,550.69,257.74,545,270c-8.18.11-16-2.07-24-3.56-11.4-2.14-22.7-4.83-34.06-7.19a31.48,31.48,0,0,0-5-.24Z" transform="translate(-0.93 -0.41)"/><path class="cls-6" d="M537,287c.55-5.83,3.73-10.43,7-15C543.23,277.73,539.38,282,537,287Z" transform="translate(-0.93 -0.41)"/><path class="cls-80" d="M516,214c-3.64-.61-5.39-3.83-7.73-6-10.92-10.15-21.54-20.63-32.27-31-1.72-2.62.32-4.45,1.56-6.22,7.71-11,15.81-21.74,23.82-32.53a52.91,52.91,0,0,0,4.2-6.71c1.54-2.49,3.33-4.73,6.1-5.95a1.6,1.6,0,0,1,1.32.4c10.9,4.73,22.36,7.92,33.51,11.94,8.19,3,16.34,6,24.51,9.07l1,1,0,1c-.11,2.94-2.24,4.73-3.93,6.73-15.33,18.14-31.2,35.83-46.77,53.77A33.78,33.78,0,0,1,516,214Z" transform="translate(-0.93 -0.41)"/><path class="cls-81" d="M513,126c-.32,0-.64,0-1,0-3.79,1.74-5.84-.78-7.85-3.27-8.1-10-16.31-19.92-27-27.36a12.34,12.34,0,0,1-4.4-4.65c-1.72-3.63-3.62-7-7-9.42a3.27,3.27,0,0,1-1.16-4.4,3.46,3.46,0,0,1,1.25-1,8.58,8.58,0,0,1,5.39-.2c14.19,3.53,28.75,5.17,43,8.44,2.92.67,5.93,1.1,7.83,3.84v0q-3.09,15.28-7.62,30.21C513.62,120.78,512.74,123.27,513,126Z" transform="translate(-0.93 -0.41)"/><path class="cls-82" d="M522,88c-13.92-3-27.78-6.33-41.94-8-5.09-.62-9.75-3.47-15.07-3-1.37-2.36.26-3.18,2-4,5.19-5.61,9-12.27,13.58-18.33Q493.33,37.87,506,21l2,0c1.91,9.22,3.9,18.42,5.71,27.66C516.28,61.83,520.36,74.65,522,88Z" transform="translate(-0.93 -0.41)"/><path class="cls-83" d="M83,153q-16.79-13.83-33.58-27.65c-.35-.29-1-.26-1.43-.38l27.74-21.84c4.17-3.29,8.46-6.43,12.46-9.91,2.53-2.19,5.5-2.19,8.41-2.6C110.39,88.7,124,85.63,138,85l0,0c.94,2.94-1.29,4.61-2.73,6.51-10.73,14.12-22.22,27.63-33.43,41.37-4.2,5.15-7.81,10.73-12.08,15.83A14.43,14.43,0,0,1,85,153Z" transform="translate(-0.93 -0.41)"/><path class="cls-84" d="M242,213a373.93,373.93,0,0,1-26.85,26.57c-9.09,8.23-17,17.72-26.6,25.41a4.09,4.09,0,0,0-1.55,3l-3,2c-3.58-.74-5.48-3.73-7.52-6.18-7.52-9-15.81-17.35-23.75-26A5.65,5.65,0,0,0,151,237v-1c3.61-11.56,9.48-22.12,14.64-33,2.25-4.75,5.55-9,6.28-14.47a4.43,4.43,0,0,1,3-2.5c6.84.72,12.82,4.18,19.18,6.34,14.56,5,28.94,10.45,43.23,16.16a16.06,16.06,0,0,1,3.61,1.63A2.92,2.92,0,0,1,242,213Z" transform="translate(-0.93 -0.41)"/><path class="cls-85" d="M97,250c.37-20.34-1.75-40.64-1-61-1.21-1.84.15-2.33,1.49-2.72,2-.6,3.93.17,5.83.77q21.36,6.78,42.51,14.24c4.66,1.64,8.2,1.19,11.74-2.19,2.88-2.76,5.77-5.5,8.48-8.42,1.48-1.6,3-3.24,5.56-2.27,1.26,4.63-1.71,7.54-4.68,9.93-20.28,16.29-41.8,31-61.79,47.64-1.54,1.28-3.44,2-5.14,3Z" transform="translate(-0.93 -0.41)"/><path class="cls-86" d="M100,249c4.45-5.93,10.94-9.49,16.56-14,10.56-8.52,20.82-17.6,32.25-24.78,6.3-4,11.35-9.18,17.45-13.18,2.81-1.84,4.2-5.07,5.74-8a.66.66,0,0,1,1,0c.31,5-2.83,8.77-4.72,12.88-4.55,9.86-10.27,19.18-13.61,29.62A7.31,7.31,0,0,1,151,236c-13.73,3.79-27.71,6.66-41.27,11.11A34,34,0,0,1,100,249Z" transform="translate(-0.93 -0.41)"/><path class="cls-87" d="M516,214c1.22-4.21,4.84-6.71,7.5-9.72,15.83-17.86,31.68-35.7,46.9-54.09A8.6,8.6,0,0,1,572,149c1.89.25,3.8.88,4.79,2.43,6.39,10,17.49,15.07,24.73,24.22,2,2.52,5.51,4,8.23,6.15C613.83,185,616.54,189.3,620,193c-11,5.52-22.67,9.3-34,14-16.37,1.78-32.79,3.09-49.11,5.44C530,213.44,523,213.5,516,214Z" transform="translate(-0.93 -0.41)"/><path class="cls-25" d="M671.27,155.39a1.53,1.53,0,0,1-1.65,1.43c-.86,0-1.76-.23-1.84-1.21s.72-1.4,1.61-1.43A1.67,1.67,0,0,1,671.27,155.39Z" transform="translate(-0.93 -0.41)"/><path class="cls-88" d="M173,189h-1c-2.09-.18-3.2,1-4.42,2.57-3.68,4.75-8.4,8.46-13,12.3-2.08,1.74-4,.81-6.08.13-15.9-5.3-31.79-10.64-47.72-15.85-1.53-.5-3.78-2.61-4.8.85-5.19-2-10.74-1.09-16.1-1.77-6.75-.85-13.53-2.44-20.51-1.4-2.91.43-4.7-1.93-5.38-4.8a162,162,0,0,1,26.56,3.36c11.41,2.27,21-.5,30.87-5.29C126.5,171.8,141.8,165,157,158c3.91-2.31,5.37.85,6.91,3.29,3.18,5.06,4.94,10.84,7.93,16,1.41,2.44,2.83,4.86,4.38,7.21.44,1.24-.29,1.91-1.22,2.48Z" transform="translate(-0.93 -0.41)"/><path class="cls-89" d="M85,153c4.19-7.35,9.8-13.69,15-20.28,12.55-16,26.1-31.2,38-47.69,7.86-.19,14.72,3.65,22,5.6C174.44,94.46,188.69,98.85,203,103c1.88,1.06,4.27.32,6.06,1.69.93,2.48-1.13,3.54-2.36,5-5.82,6.83-12.71,12.63-18.64,19.35-8.33,8.06-16.24,16.51-24,25.12-1.85,2-3.67,4.5-7.07,2.85q-34.33-1.51-68.67-3.06A14.6,14.6,0,0,1,85,153Z" transform="translate(-0.93 -0.41)"/><path class="cls-90" d="M157,157c3.94.23,5.11-3.36,7.14-5.5,7.53-7.92,14.58-16.3,22.87-23.49,6-4.21,13.19-3.83,20-4.83a129.53,129.53,0,0,0,14.62-2.54c7.06-1.88,14.32-2.15,21.57-2.38a2.33,2.33,0,0,1,1.29,1c.07.25.15.52.23.76l0,.77c-.77,2.39-3,3.46-4.63,5.08-11,10.93-22.11,21.67-33.25,32.41-8.5,8.21-17.42,16-25.69,24.42-1.33,1.35-2.64,3.17-5.07,2.34-5.54-2.57-6.11-8.55-8.8-13-1.93-3.25-3.28-6.85-4.89-10.29-1.06-2.26-2.57-3.86-5.32-3.67Z" transform="translate(-0.93 -0.41)"/><path class="cls-91" d="M244,119c-2.73.6-5.43,1.55-8.18,1.74-14.81,1.06-29.12,5.52-44,6.34A37,37,0,0,0,187,128l22-23c.48-1.77,2-2.61,3.33-3.53,17.55-11.88,35.18-23.64,53-35.09A6.35,6.35,0,0,1,269,65c1.66.13,2.51-1.06,3.7-2,8.09-6,15.5-13,24.31-18a6.42,6.42,0,0,0,4.07,3.43c2.83.76,4.23,2.32,4,5.32a3.48,3.48,0,0,0,1.52,3c7.52,6.38,13.3,14.2,18.74,22.36,1.69,2.53,4.47,4.33,6.74,6.47,1.56,1.49,3.22,2.94,2.94,5.44-1.52,1.43-3.16.65-4.67.09-7.63-2.83-15.37-5.48-22.42-9.59-3.75-2.18-6.61-1.78-10,.65-15.65,11.24-30.91,23-46.54,34.29C249.23,118,247.35,120.75,244,119Z" transform="translate(-0.93 -0.41)"/><path class="cls-92" d="M269,65c-3.67,5-9.54,7-14.35,10.38C241,85,226.88,93.87,212.93,103c-1.22.8-2.31,1.94-3.93,2a9.85,9.85,0,0,1-6-2c5.7-.25,6.05-.79,5-6.11-2.78-14.12-5.78-28.21-8.47-42.36-1.87-9.84-3.9-19.79-6.53-29.53a2.66,2.66,0,0,1,3.64-.54c4.12,3.1,10,3.26,13.2,8,.86,1.29,3.25,1.47,4.83,2.36,14.1,7.91,29,14.28,42.84,22.75C261.39,60,266.52,60.44,269,65Z" transform="translate(-0.93 -0.41)"/><path class="cls-93" d="M398,145l-1,0c-8.06-3.37-16.13-6.7-24.17-10.11-5.19-2.19-10.35-4.46-15.49-6.77-1.64-.73-3.47-1.3-4.35-3.12-.61-3.24,2.25-4.17,4-5.66,9.73-8.31,20-16,29.94-24,8.8-7.06,17.59-14.15,26.21-21.43,2.11-1.77,4.62-2.55,6.86-3.93l2-1a7,7,0,0,1,5.18-1.33c11.24,2.18,22.57,3.85,33.66,6.69a6.09,6.09,0,0,1,2.59,1.44c1.9,2.84-.16,4.68-1.85,6.39-9.88,10.06-20,19.92-29.79,30.05-9,9.29-18.65,17.94-27.07,27.78A19.66,19.66,0,0,1,398,145Z" transform="translate(-0.93 -0.41)"/><path class="cls-94" d="M244,119c7.91-4.23,14.65-10.12,21.84-15.37,11.09-8.12,22.23-16.17,33.24-24.41,2.67-2,4.91-2.09,7.67-.39C315.56,84.28,325.39,87.41,335,91l3,3c-.37,1-1.34,2,0,3a3.8,3.8,0,0,1-.44,4.24c-7.8,11.34-14.54,23.42-23.49,34-2.46,1.51-5,1.28-7.69.64-18.35-4.4-36.84-8.18-55.15-12.77-2.56-.65-5.15-1.25-7.22-3.07C244,119.68,244,119.35,244,119Z" transform="translate(-0.93 -0.41)"/><path class="cls-95" d="M314,134c6.73-10.21,13.38-20.48,20.24-30.6A70,70,0,0,0,338,97c15.68-7.3,32.32-11.83,48.74-17,8.87-2.78,17.71-5.67,26.49-8.74A16.93,16.93,0,0,1,420,70c-6.49,6.63-14.23,11.77-21.24,17.79C383.84,100.61,367.55,111.74,353,125c-7.59,2.11-15.18,4.24-22.78,6.34-2.7.75-5.35,1.77-8.22,1.66C319.21,132.28,317,135.94,314,134Z" transform="translate(-0.93 -0.41)"/><path class="cls-96" d="M464,77c-9-1.59-17.81-4.38-27.05-5.28C432,71.24,427.16,69.05,422,69l1-2c6.4-4.14,11.89-9.42,17.7-14.29,8.48-7.1,16.68-14.55,25-21.8A7.34,7.34,0,0,1,468,30c1.83,2.37,1.06,5.15.93,7.7-.48,9.63,0,19.37-3.65,28.65-.84,2.12-1.08,5,1.72,6.65-.63,1.34-2,2.3-2,4v0C464.67,77.49,464.34,77.5,464,77Z" transform="translate(-0.93 -0.41)"/><path class="cls-97" d="M507,132c-6.67,11.53-15.2,21.75-23,32.48-2.92,4-6.14,7.82-8,12.51l-2,0c-8.31-.14-16.48,1.27-24.7,2.13-9.7,1-19.39,2.11-29.11,2.77-5.4.37-10.69,2.5-16.2,1.08,12.43-5.41,25.44-9.22,38.09-14,10.62-4,21.68-6.88,31.91-12q14.24-12.6,29-24.56C504.13,131.54,505.5,130.68,507,132Z" transform="translate(-0.93 -0.41)"/><path class="cls-98" d="M242,213c-.33-.66-.67-1.32-1-2,.19-12.74-.11-25.47.72-38.24.94-14.54.24-29.18.22-43.77,0-2.89.27-5.62,2-8v0c3.24-.93,4.85,1.33,6.4,3.43,10.81,14.59,22.3,28.65,33.52,42.91,6.8,8.63,12.6,18,20.28,26A9.6,9.6,0,0,0,306,195l-1,3-2,1c-5.55.12-10.72,2.15-16.05,3.31C271.91,205.61,257,209.41,242,213Z" transform="translate(-0.93 -0.41)"/><path class="cls-99" d="M306,195c-3.15,1.24-4.05-1.64-5.43-3.2-5.53-6.2-10.11-13.15-15.14-19.74-11.07-14.49-22.5-28.71-33.9-43-2.29-2.87-3-7.33-7.53-8.12,0-.32,0-.65,0-1,8.79.71,17.11,3.7,25.68,5.47,13.11,2.72,26.13,5.94,39.17,9,1.8.42,3.55,1,5.14-.47a7.39,7.39,0,0,0,4.95-1.62c1.35-1,2.31-.93,3.05.63a2.44,2.44,0,0,1-2.32,1.52c-5.29.24-7.2,3.46-7.65,8.33q-2.2,23.67-5.94,47.16A37.35,37.35,0,0,0,306,195Z" transform="translate(-0.93 -0.41)"/><path class="cls-100" d="M507,132c-6.79,4.06-12.29,9.71-18.32,14.71-4.59,3.8-8.66,8.47-14.67,10.29-9.39-3-19.28-3-28.89-4.83-15.62-2.88-31.55-3.83-47.12-7.19,10.16-12.21,21.86-22.94,32.93-34.28S453,88.24,464,77c.33,0,.66,0,1,0,0,.33-.09.86.08,1,7,4.31,8.08,13.6,15.4,17.92,6.82,4,11.1,11.13,17,16.19,5.14,4.43,6.72,12.56,14.58,14Z" transform="translate(-0.93 -0.41)"/><path class="cls-99" d="M244,121c0,16.81.6,33.65-.18,50.43-.55,11.79-.66,23.57-.79,35.36,0,1.75-.29,3.32-2,4.23-6.58-.59-12.17-4.06-18.2-6.24-14.14-5.11-28.24-10.31-42.34-15.5-1.85-.68-3.64-1.52-5.45-2.28l1-2c6.33-5.1,11.88-11.06,17.82-16.58,15.17-14.12,29.77-28.84,44.57-43.35A17.37,17.37,0,0,1,244,121Z" transform="translate(-0.93 -0.41)"/></g></g></svg>