<svg xmlns="http://www.w3.org/2000/svg" width="512" height="448" viewBox="0 0 512 448">
  <path id="grid" d="M296,32H488a24,24,0,0,1,24,24V216a24,24,0,0,1-24,24H296a24,24,0,0,1-24-24V56A24,24,0,0,1,296,32Zm-80,0H24A24,24,0,0,0,0,56V216a24,24,0,0,0,24,24H216a24,24,0,0,0,24-24V56A24,24,0,0,0,216,32ZM0,296V456a24,24,0,0,0,24,24H216a24,24,0,0,0,24-24V296a24,24,0,0,0-24-24H24A24,24,0,0,0,0,296ZM296,480H488a24,24,0,0,0,24-24V296a24,24,0,0,0-24-24H296a24,24,0,0,0-24,24V456A24,24,0,0,0,296,480Z" transform="translate(0 -32)" fill="#fff"/>
</svg>
