<svg xmlns="http://www.w3.org/2000/svg" width="512" height="416" viewBox="0 0 512 416">
  <path id="list" d="M80,368H16A16,16,0,0,0,0,384v64a16,16,0,0,0,16,16H80a16,16,0,0,0,16-16V384A16,16,0,0,0,80,368ZM80,48H16A16,16,0,0,0,0,64v64a16,16,0,0,0,16,16H80a16,16,0,0,0,16-16V64A16,16,0,0,0,80,48Zm0,160H16A16,16,0,0,0,0,224v64a16,16,0,0,0,16,16H80a16,16,0,0,0,16-16V224A16,16,0,0,0,80,208ZM496,384H176a16,16,0,0,0-16,16v32a16,16,0,0,0,16,16H496a16,16,0,0,0,16-16V400A16,16,0,0,0,496,384Zm0-320H176a16,16,0,0,0-16,16v32a16,16,0,0,0,16,16H496a16,16,0,0,0,16-16V80A16,16,0,0,0,496,64Zm0,160H176a16,16,0,0,0-16,16v32a16,16,0,0,0,16,16H496a16,16,0,0,0,16-16V240A16,16,0,0,0,496,224Z" transform="translate(0 -48)" fill="#fff"/>
</svg>
